HIERARCHY
ROOT Hips
{
	OFFSET 0.000000 0.000000 0.000000 
	CHANNELS 6 Xposition Yposition Zposition Zrotation Yrotation Xrotation
	JOINT LeftUpLeg
	{
		OFFSET 1.363060 -1.794630 0.839290 
		CHANNELS 3 Zrotation Yrotation Xrotation
		JOINT LeftLeg
		{
			OFFSET 2.448110 -6.726130 0.000000 
			CHANNELS 3 Zrotation Yrotation Xrotation
			JOINT LeftFoot
			{
				OFFSET 2.562200 -7.039590 0.000000 
				CHANNELS 3 Zrotation Yrotation Xrotation
				JOINT LeftToeBase
				{
					OFFSET 0.157640 -0.433110 2.322550 
					CHANNELS 3 Zrotation Yrotation Xrotation
					End Site
					{
						OFFSET 0.000000 0.000000 0.000000 
					}
				}
			}
		}
	}
	JOINT RightUpLeg
	{
		OFFSET -1.305520 -1.794630 0.839290 
		CHANNELS 3 Zrotation Yrotation Xrotation
		JOINT RightLeg
		{
			OFFSET -2.542530 -6.985550 0.000000 
			CHANNELS 3 Zrotation Yrotation Xrotation
			JOINT RightFoot
			{
				OFFSET -2.568260 -7.056230 0.000000 
				CHANNELS 3 Zrotation Yrotation Xrotation
				JOINT RightToeBase
				{
					OFFSET -0.164730 -0.452590 2.363150 
					CHANNELS 3 Zrotation Yrotation Xrotation
					End Site
					{
						OFFSET 0.000000 0.000000 0.000000 
					}
				}
			}
		}
	}
	JOINT Spine
	{
		OFFSET 0.028270 2.035590 -0.193380 
		CHANNELS 3 Zrotation Yrotation Xrotation
		JOINT Spine1
		{
			OFFSET 0.056720 2.048850 -0.042750 
			CHANNELS 3 Zrotation Yrotation Xrotation
			JOINT Neck1
			{
				OFFSET -0.054170 1.746240 0.172020 
				CHANNELS 3 Zrotation Yrotation Xrotation
				JOINT Head
				{
					OFFSET 0.104070 1.761360 -0.123970 
					CHANNELS 3 Zrotation Yrotation Xrotation
					End Site
					{
						OFFSET 0.000000 0.000000 0.000000 
					}
				}
			}
			JOINT LeftArm
			{
				OFFSET 3.362410 1.200890 -0.311210 
				CHANNELS 3 Zrotation Yrotation Xrotation
				JOINT LeftForeArm
				{
					OFFSET 4.983000 -0.000000 -0.000000 
					CHANNELS 3 Zrotation Yrotation Xrotation
					JOINT LeftHand
					{
						OFFSET 3.483560 -0.000000 -0.000000 
						CHANNELS 3 Zrotation Yrotation Xrotation
						JOINT LeftHandIndex1
						{
							OFFSET 0.715260 -0.000000 -0.000000 
							CHANNELS 3 Zrotation Yrotation Xrotation
							End Site
							{
								OFFSET 0.000000 0.000000 0.000000 
							}
						}
					}
				}
			}
			JOINT RightArm
			{
				OFFSET -3.136600 1.374050 -0.404650 
				CHANNELS 3 Zrotation Yrotation Xrotation
				JOINT RightForeArm
				{
					OFFSET -5.241900 -0.000000 -0.000000 
					CHANNELS 3 Zrotation Yrotation Xrotation
					JOINT RightHand
					{
						OFFSET -3.444170 -0.000000 -0.000000 
						CHANNELS 3 Zrotation Yrotation Xrotation
						JOINT RightHandIndex1
						{
							OFFSET -0.622530 -0.000000 -0.000000 
							CHANNELS 3 Zrotation Yrotation Xrotation
							End Site
							{
								OFFSET 0.000000 0.000000 0.000000 
							}
						}
					}
				}
			}
		}
	}
}
MOTION
Frames: 7
Frame Time: 0.041667
35.643054 18.073833 1.934494 3.856949 -71.496152 10.381200 -9.009126 -21.180452 -25.503085 0.353502 9.199644 26.599452 -2.058852 8.760335 4.002630 0.026400 1.048100 2.881000 19.508233 9.925418 -16.748416 -1.086617 -7.856371 26.627205 4.457056 -24.879802 -21.545056 -0.330200 3.693300 -10.215200 1.694864 -0.189281 -5.469463 2.479840 0.260992 -1.388283 -21.479860 16.714519 1.498352 -6.296900 8.297700 2.238900 -49.247166 35.333584 35.271688 127.978881 -45.429907 -94.726884 -0.863873 0.159932 14.341716 -7.125000 0.000000 0.000000 73.850849 -49.833822 9.474800 -67.591359 46.501807 -36.897453 0.986252 -0.568380 -1.460959 7.125000 0.000000 0.000000 
35.620404 18.068874 1.948692 4.069435 -70.953199 10.231552 -9.155384 -21.270762 -25.532675 0.361594 9.201889 26.628656 -1.949821 8.449856 4.551475 0.063700 1.628700 4.480500 19.450396 9.803437 -16.588097 -1.058813 -7.805343 26.502181 4.502137 -25.123441 -21.842431 -0.324400 3.661100 -10.125200 1.563643 -0.032297 -5.461256 2.272882 0.322606 -1.285934 -21.831707 17.742791 2.049470 -6.381000 8.789300 2.554900 -48.632237 34.474424 35.588898 128.172304 -45.426847 -94.855106 -0.860728 0.208323 14.078817 -7.125000 0.000000 0.000000 75.075992 -49.398878 8.116230 -67.493953 46.524845 -36.789303 0.974704 -0.583690 -1.163886 7.125000 0.000000 0.000000 
35.605078 18.064480 1.965032 4.183212 -70.389598 10.251965 -9.274051 -21.282389 -25.703807 0.355228 9.205939 26.651802 -1.768108 7.878833 4.793143 0.092800 1.964700 5.408100 19.413285 9.664725 -16.567097 -1.038283 -7.769830 26.400261 4.603783 -25.492790 -21.970550 -0.357100 3.838800 -10.623700 1.482531 0.160599 -5.429352 2.094340 0.407843 -1.155282 -21.594598 18.788073 2.782223 -6.187000 9.257400 2.870500 -47.971061 33.638523 36.041711 128.445894 -45.408486 -95.048094 -0.868596 0.211053 13.981894 -7.125000 0.000000 0.000000 76.208419 -48.878677 6.763835 -67.437210 46.610281 -36.785472 0.974707 -0.570434 -1.130392 7.125000 0.000000 0.000000 
35.590542 18.063015 1.976864 4.311850 -69.702795 10.309651 -9.370010 -21.373829 -25.912369 0.346073 9.206428 26.672615 -1.557978 7.193012 4.870992 0.131300 2.335800 6.434600 19.409124 9.534858 -16.577892 -1.013485 -7.730525 26.281995 4.749943 -26.027278 -22.161185 -0.403300 4.077100 -11.293800 1.409512 0.355457 -5.426831 1.943385 0.498006 -1.000167 -21.334216 19.675580 3.014393 -6.031600 9.696000 2.973900 -47.235380 32.650430 36.577883 128.574739 -45.455009 -95.121818 -0.864955 0.188908 13.904101 -7.125000 0.000000 0.000000 77.271377 -48.367952 5.505718 -67.359545 46.701896 -36.774500 0.981027 -0.544620 -1.308852 7.125000 0.000000 0.000000 
35.567892 18.062677 1.985766 4.433595 -69.008289 10.263656 -9.449106 -21.607637 -25.905440 0.341671 9.189174 26.681404 -1.389187 6.622817 4.930579 0.192800 2.827700 7.799300 19.438449 9.374434 -16.412639 -0.983151 -7.675016 26.143981 4.851557 -26.467682 -22.502822 -0.414600 4.133300 -11.452000 1.327052 0.502403 -5.405535 1.832669 0.560704 -0.804919 -21.684808 20.381327 2.821289 -6.150900 10.086900 3.006300 -46.574202 31.605265 36.995187 128.509723 -45.568143 -95.041802 -0.834390 0.136965 13.831793 -7.125000 0.000000 0.000000 78.206502 -47.836272 4.420436 -67.225390 46.790543 -36.688647 0.978446 -0.535101 -1.256094 7.125000 0.000000 0.000000 
35.547608 18.063240 1.994556 4.416559 -68.564152 10.335119 -9.491912 -21.696237 -25.913730 0.338550 9.182863 26.695735 -1.280029 6.248900 4.899156 0.170600 2.661100 7.336500 19.482218 9.305333 -16.252177 -0.958133 -7.623298 26.005826 4.953204 -26.815576 -22.590003 -0.434700 4.230800 -11.727000 1.423560 0.546611 -5.344626 2.029179 0.585244 -0.629436 -22.158866 21.222527 2.343574 -6.244900 10.553200 2.976600 -46.538350 30.881794 36.900110 128.497785 -45.631518 -95.007203 -0.846599 0.150242 13.915564 -7.125000 0.000000 0.000000 78.064041 -47.339709 4.242567 -66.895930 46.837189 -36.417268 0.977531 -0.529460 -1.280349 7.125000 0.000000 0.000000 
35.518535 18.065268 2.003008 4.525504 -67.663828 10.319566 -9.590359 -21.871525 -25.960841 0.334440 9.172881 26.725895 -1.070257 5.529211 4.898206 0.162700 2.598800 7.163600 19.541928 9.198339 -16.014121 -0.916529 -7.554459 25.852861 4.991343 -27.196648 -23.320500 -0.377600 3.946400 -10.925900 1.576270 0.377135 -5.231635 2.335332 0.498047 -0.261829 -22.527709 22.009655 1.871814 -6.273900 10.985000 2.930500 -46.566547 30.070474 36.689197 128.476461 -45.704776 -94.968363 -0.842101 0.155611 13.955392 -7.125000 0.000000 0.000000 77.643365 -46.759348 4.318366 -66.474206 46.888643 -36.081468 0.982103 -0.511865 -1.490220 7.125000 0.000000 0.000000 
